<?xml version="1.0"?>
<svg width="2048" height="2048" xmlns="http://www.w3.org/2000/svg" xmlns:svg="http://www.w3.org/2000/svg" version="1.1">
 <g class="layer">
  <title>Layer 1</title>
  <path d="m0,0l100,0l35,6l29,8l27,10l32,14l40,20l22,12l26,15l19,13l32,21l16,11l12,8l28,19l12,9l14,10l11,9l15,12l14,11l22,18l16,13l10,9l11,9l15,14l10,8l12,11l13,10l16,13l14,11l17,14l11,8l19,14l15,12l19,14l24,16l18,13l15,11l20,14l18,12l31,21l15,10l16,11l20,13l15,9l21,12l23,12l29,14l29,11l28,9l34,7l36,5l31,0l39,-5l33,-6l18,-6l22,-11l17,-10l12,-8l8,-5l1,2l-3,6l-9,10l-11,11l-11,9l-16,12l-17,12l-15,10l-18,11l-18,10l-26,11l-19,6l-29,7l-20,4l-25,3l-15,1l-67,0l-22,-2l-24,-4l-31,-9l-35,-12l-28,-12l-30,-15l-18,-10l-24,-14l-29,-17l-33,-22l-25,-16l-15,-10l-18,-13l-13,-10l-14,-11l-16,-13l-14,-11l-11,-9l-13,-11l-14,-11l-10,-9l-11,-9l-11,-10l-11,-9l-13,-11l-10,-8l-17,-14l-22,-18l-18,-14l-16,-12l-21,-16l-14,-10l-13,-10l-14,-10l-17,-12l-28,-20l-13,-9l-17,-12l-66,-44l-32,-21l-26,-16l-28,-15l-19,-9l-28,-12l-35,-12l-24,-6l-22,-4l-22,-3l-16,-1l-21,0l-27,2l-24,4l-35,9l-15,6l-19,10l-13,9l-13,8l-2,0l2,-5l4,-6l8,-7l9,-9l14,-11l17,-13l23,-16l16,-10l16,-9l23,-11l30,-10l29,-7l22,-4l19,-2z" fill="#f20028" id="svg_1" transform="translate(505,679)"/>
  <path d="m0,0l20,0l20,4l15,4l8,4l0,4l-19,8l-16,9l-13,9l-11,9l-15,13l-14,14l-8,10l-10,12l-16,24l-8,15l-8,22l-5,21l-1,9l0,38l3,21l4,17l6,17l8,16l8,14l12,17l10,11l7,8l12,12l11,9l9,7l21,14l18,10l16,8l30,11l18,5l23,4l27,3l47,0l24,-3l29,-6l23,-7l22,-9l16,-8l16,-9l21,-14l10,-8l10,-9l14,-14l7,-8l11,-14l7,-10l12,-22l7,-17l4,-15l3,-2l-17,-17l-8,-7l-6,-7l-4,-8l0,-9l6,-17l2,-8l5,1l13,10l11,10l14,11l25,20l13,10l15,12l19,14l11,9l13,11l11,9l16,13l32,24l10,8l12,10l26,20l9,7l16,12l28,20l12,10l5,4l4,5l8,7l2,3l0,4l-6,-1l-14,-10l-11,-7l-22,-13l-16,-11l-16,-10l-17,-10l-25,-15l-14,-9l-18,-13l-30,-20l-7,-4l-2,10l-5,16l-15,27l-14,21l-10,13l-12,14l-7,8l-8,8l-5,6l-8,7l-13,12l-9,7l-13,10l-21,14l-24,14l-25,12l-23,9l-31,10l-23,6l-45,9l-23,3l-12,1l-50,0l-37,-4l-40,-8l-29,-8l-34,-13l-18,-8l-29,-14l-23,-14l-14,-11l-16,-12l-14,-13l-8,-7l-16,-17l-9,-10l-8,-10l-12,-16l-13,-21l-9,-17l-12,-28l-11,-30l-9,-24l-7,-12l-9,-9l-13,-8l-15,-7l-21,-6l-27,-6l-4,-3l1,-4l4,-3l25,-8l20,-8l25,-12l5,-4l2,0l2,-4l4,-5l7,-19l9,-36l6,-18l10,-25l9,-19l10,-17l13,-18l8,-8l9,-4l35,-7l34,-4l37,-3l14,0l1,3l1,-2l12,-2zm19,9l-11,6l-12,8l-13,11l-7,6l-11,9l-14,14l-9,11l-10,12l-14,21l-8,16l-6,14l-6,18l-3,16l-2,24l0,45l4,26l7,24l8,18l10,20l8,11l9,12l9,10l7,8l18,18l17,13l16,11l16,9l15,8l28,12l16,5l29,7l27,3l22,1l66,0l25,-3l28,-6l20,-6l25,-10l23,-12l17,-11l10,-8l13,-10l15,-13l10,-9l14,-15l9,-11l12,-17l8,-16l7,-16l3,-13l0,-3l3,0l1,21l-4,16l-6,12l-13,20l-8,10l-13,16l-25,25l-14,11l-15,11l-11,7l-16,8l-21,10l-28,10l-25,7l-23,4l-30,3l-23,1l-33,0l-29,-2l-20,-3l-30,-7l-21,-7l-29,-12l-17,-9l-18,-11l-23,-16l-10,-9l-8,-7l-17,-17l-9,-11l-13,-17l-9,-16l-9,-19l-6,-17l-7,-26l-3,-15l-2,-21l0,-28l2,-20l5,-29l8,-22l11,-24l8,-14l10,-13l8,-10l10,-11l5,-6l16,-14l0,-2l4,-2l9,-11l4,-6l-10,0l-16,2l-25,2l-27,4l-12,4l-9,6l-7,8l-7,10l-9,15l-9,17l-11,28l-12,36l-9,29l-5,13l-7,12l-9,8l-11,6l-6,6l2,4l17,13l10,9l8,13l6,13l13,39l9,22l7,14l10,17l12,17l9,12l12,14l9,10l24,24l11,9l13,10l24,16l26,15l21,10l26,10l34,10l31,6l38,4l21,1l38,0l27,-2l32,-5l32,-8l21,-7l36,-16l21,-11l22,-13l20,-14l16,-13l11,-9l21,-21l9,-11l8,-9l7,-10l9,-12l10,-16l16,-32l2,-6l-1,-7l-9,-9l-30,-20l-15,-9l-14,-9l-6,-1l-3,13l-4,12l-14,28l-16,22l-8,10l-12,13l-15,15l-11,9l-13,10l-15,10l-18,10l-34,14l-19,6l-32,6l-31,3l-16,1l-41,0l-29,-3l-23,-5l-24,-7l-20,-7l-16,-7l-23,-12l-20,-14l-16,-13l-8,-7l-13,-13l-11,-14l-11,-15l-9,-15l-9,-17l-7,-18l-5,-21l-3,-24l0,-41l3,-20l7,-27l10,-23l10,-15l12,-16l11,-12l7,-8l9,-9l5,-6l8,-7l24,-24l10,-14l0,-2l-3,0z" fill="#f20028" id="svg_2" transform="translate(411,807)"/>
  <path d="m0,0l47,0l38,3l33,5l28,7l37,13l28,13l15,8l24,14l13,9l14,10l16,13l11,9l22,22l9,11l13,18l11,17l12,20l12,23l10,23l13,36l8,15l10,14l12,11l21,8l12,2l32,1l5,2l-1,3l-14,9l-64,32l-8,7l-6,11l-3,9l-9,36l-10,30l-8,18l-8,17l-12,20l-12,18l-7,7l-7,3l-28,5l-27,4l-22,2l-18,1l-80,0l-18,-2l-7,-3l5,-5l9,-6l16,-9l16,-10l17,-13l13,-11l13,-12l13,-14l10,-15l9,-16l10,-21l6,-18l5,-22l2,-18l1,-28l-3,-24l-6,-24l-7,-17l-11,-21l-11,-16l-11,-14l-12,-13l-16,-15l-15,-11l-15,-9l-22,-12l-22,-10l-19,-7l-23,-7l-25,-5l-16,-2l-17,-1l-32,0l-29,3l-22,4l-25,7l-22,9l-16,8l-15,8l-19,12l-11,9l-13,11l-12,11l-9,11l-11,12l-14,21l-9,16l-8,17l-6,17l1,4l5,6l14,11l7,8l5,9l-1,14l-3,9l-6,5l-6,-1l-10,-6l-11,-9l-13,-11l-13,-10l-13,-11l-17,-13l-12,-9l-13,-10l-11,-9l-9,-7l-11,-9l-14,-12l-13,-10l-14,-11l-17,-13l-16,-13l-17,-13l-13,-11l-13,-10l-14,-11l-17,-14l-13,-11l-10,-8l-11,-9l-6,-5l0,-1l6,0l12,7l10,7l20,12l9,6l10,6l11,8l15,10l23,14l8,7l6,4l12,9l10,5l12,8l11,7l10,7l6,4l3,-9l4,-9l10,-15l10,-19l14,-21l14,-18l9,-10l11,-12l24,-24l11,-9l16,-13l17,-12l25,-14l19,-10l19,-9l29,-11l36,-10l28,-5l18,-2l39,-2zm10,27l-38,2l-26,3l-28,6l-26,7l-20,7l-18,8l-27,14l-21,13l-19,12l-16,12l-12,11l-8,7l-14,15l-11,12l-11,14l-16,25l-8,13l-10,18l-6,11l-5,10l2,4l11,9l15,10l14,10l7,4l3,0l4,-8l5,-13l14,-26l9,-14l16,-21l8,-10l11,-12l9,-9l11,-9l18,-13l15,-10l19,-11l15,-8l24,-10l22,-7l22,-5l36,-5l20,-2l43,0l25,3l30,5l29,7l15,5l31,13l16,8l19,11l16,13l10,8l20,18l12,14l13,17l10,14l9,15l9,20l7,18l5,22l2,17l1,18l0,26l-2,25l-5,25l-5,15l-16,33l-8,13l-11,16l-10,13l-11,12l-11,10l-11,8l-9,10l0,1l7,1l40,0l23,-3l17,-4l10,-6l10,-12l9,-13l12,-22l8,-16l7,-17l10,-35l9,-30l7,-17l7,-7l7,-8l12,-11l-2,-5l-7,-9l-7,-7l-9,-12l-8,-14l-7,-17l-11,-30l-11,-24l-12,-22l-12,-19l-13,-18l-9,-11l-9,-10l-11,-12l-10,-9l-14,-12l-20,-15l-15,-10l-25,-15l-26,-13l-31,-12l-26,-8l-33,-7l-30,-4l-29,-2l-21,0zm-8,72l-22,2l-44,9l-28,8l-26,11l-24,13l-15,10l-19,14l-11,10l-9,7l0,2l-4,2l0,2l-4,2l-7,7l-8,10l-11,14l-14,20l-13,24l-8,16l-3,8l0,4l9,5l3,0l4,-13l13,-25l7,-13l12,-17l8,-11l12,-14l4,-5l8,-7l11,-11l8,-7l14,-11l20,-13l30,-15l36,-12l23,-6l30,-5l25,-2l24,0l25,2l36,6l20,6l24,8l17,9l16,8l11,6l15,10l10,8l10,9l8,7l12,13l11,12l11,14l6,8l12,21l7,16l6,18l4,21l2,31l0,11l-1,18l-4,24l-7,23l-10,23l-8,14l-6,10l-12,16l-9,10l-7,8l-18,18l-10,6l-21,11l-2,3l8,2l18,0l8,-7l9,-10l11,-12l14,-12l12,-11l9,-10l7,-11l14,-24l8,-17l7,-21l4,-23l2,-22l0,-16l-2,-24l-3,-23l-4,-16l-6,-16l-11,-21l-12,-19l-11,-14l-12,-14l-7,-7l-7,-8l-6,-5l-5,-5l-9,-8l-16,-12l-15,-10l-24,-13l-20,-9l-24,-9l-35,-8l-33,-5l-11,-1l-37,0z" fill="#f20028" id="svg_3" transform="translate(1450,655)"/>
  <path d="m0,0l0,3l-9,12l-1,-2l8,-11l2,-2z" fill="#f20028" id="svg_4" transform="translate(1234,868)"/>
  <path d="m0,0l0,3l-5,5l2,-4l3,-4z" fill="#f20028" id="svg_5" transform="translate(1710,1133)"/>
  <path d="m0,0l0,3l-2,1l2,-4z" fill="#f20028" id="svg_6" transform="translate(1240,861)"/>
  <path d="m0,0l0,3l0,-3z" fill="#f20028" id="svg_7" transform="translate(1713,1129)"/>
  <path d="m0,0l2,0l-1,2l-1,-2z" fill="#f20028" id="svg_8" transform="translate(1700,864)"/>
  <path d="m0,0" fill="#f20028" id="svg_9" transform="translate(1716,1125)"/>
  <path d="m0,0" fill="#f20028" id="svg_10" transform="translate(1718,1121)"/>
  <path d="m0,0" fill="#f20028" id="svg_11" transform="translate(1720,1118)"/>
  <path d="m0,0" fill="#f20028" id="svg_12" transform="translate(1722,1115)"/>
  <path d="m0,0" fill="#f20028" id="svg_13" transform="translate(1723,1113)"/>
  <path d="m0,0" fill="#f20028" id="svg_14" transform="translate(1724,1111)"/>
  <path d="m0,0" fill="#f20028" id="svg_15" transform="translate(1214,895)"/>
  <path d="m0,0" fill="#f20028" id="svg_16" transform="translate(1221,885)"/>
  <path d="m0,0" fill="#f20028" id="svg_17" transform="translate(1697,860)"/>
  <path d="m0,0" fill="#f20028" id="svg_18" transform="translate(1782,1213)"/>
  <path d="m0,0" fill="#f20028" id="svg_19" transform="translate(1702,1143)"/>
  <path d="m0,0" fill="#f20028" id="svg_20" transform="translate(1703,1142)"/>
  <path d="m0,0" fill="#f20028" id="svg_21" transform="translate(1704,1141)"/>
  <path d="m0,0" fill="#f20028" id="svg_22" transform="translate(1711,1132)"/>
  <path d="m0,0" fill="#f20028" id="svg_23" transform="translate(1714,1128)"/>
  <path d="m0,0" fill="#f20028" id="svg_24" transform="translate(1715,1127)"/>
  <path d="m0,0" fill="#f20028" id="svg_25" transform="translate(1719,1120)"/>
  <path d="m0,0" fill="#f20028" id="svg_26" transform="translate(1721,1117)"/>
  <path d="m0,0" fill="#f20028" id="svg_27" transform="translate(1725,1110)"/>
  <path d="m0,0" fill="#f20028" id="svg_28" transform="translate(1201,917)"/>
  <path d="m0,0" fill="#f20028" id="svg_29" transform="translate(1203,914)"/>
  <path d="m0,0" fill="#f20028" id="svg_30" transform="translate(1211,900)"/>
  <path d="m0,0" fill="#f20028" id="svg_31" transform="translate(1212,899)"/>
  <path d="m0,0" fill="#f20028" id="svg_32" transform="translate(1213,897)"/>
  <path d="m0,0" fill="#f20028" id="svg_33" transform="translate(1215,894)"/>
  <path d="m0,0" fill="#f20028" id="svg_34" transform="translate(1217,891)"/>
  <path d="m0,0" fill="#f20028" id="svg_35" transform="translate(1218,890)"/>
  <path d="m0,0" fill="#f20028" id="svg_36" transform="translate(1220,887)"/>
  <path d="m0,0" fill="#f20028" id="svg_37" transform="translate(1223,883)"/>
  <path d="m0,0" fill="#f20028" id="svg_38" transform="translate(1706,870)"/>
  <path d="m0,0" fill="#f20028" id="svg_39" transform="translate(1705,869)"/>
  <path d="m0,0" fill="#f20028" id="svg_40" transform="translate(1704,868)"/>
  <path d="m0,0" fill="#f20028" id="svg_41" transform="translate(1703,867)"/>
  <path d="m0,0" fill="#f20028" id="svg_42" transform="translate(1235,867)"/>
  <path d="m0,0" fill="#f20028" id="svg_43" transform="translate(1702,866)"/>
  <path d="m0,0" fill="#f20028" id="svg_44" transform="translate(1236,866)"/>
  <path d="m0,0" fill="#f20028" id="svg_45" transform="translate(1237,865)"/>
  <path d="m0,0" fill="#f20028" id="svg_46" transform="translate(1699,863)"/>
  <path d="m0,0" fill="#f20028" id="svg_47" transform="translate(1698,862)"/>
  <path d="m0,0" fill="#f20028" id="svg_48" transform="translate(1241,860)"/>
  <path d="m0,0" fill="#f20028" id="svg_49" transform="translate(1242,859)"/>
  <path d="m0,0" fill="#f20028" id="svg_50" transform="translate(1243,858)"/>
  <path d="m0,0" fill="#f20028" id="svg_51" transform="translate(1246,855)"/>
  <path d="m0,0" fill="#f20028" id="svg_52" transform="translate(1247,854)"/>
  <path d="m0,0" fill="#f20028" id="svg_53" transform="translate(1670,833)"/>
  <path d="m0,0" fill="#f20028" id="svg_54" transform="translate(1665,829)"/>
  <path d="m0,0" fill="#f20028" id="svg_55" transform="translate(272,799)"/>
 </g>
</svg>